# xmcd
#
# Track frame offsets: 
#        150
#        11621
#        19981
#        28599
#        40605
#        55157
#        66610
#        82849
#        90016
#        106269
#        118415
#        128834
#        141425
#        154109
#        172394
#        185151
#        197749
#        208638
#        220786
#        237964
#        250042
#        258420
#
# Disc length: 3573 seconds
#
# Revision: 0
# Processed by: cddbd v1.5.2PL0 Copyright (c) Steve Scherf et al.
# Submitted via: ExactAudioCopy v1.0b3
#
DISCID=3a0df316
DTITLE=Johnny Cash - Just One More - CD 3 (Live)
DYEAR=1900
DGENRE=
TTITLE0=Big River
TTITLE1=Get Rhythm
TTITLE2=I Got Stripes
TTITLE3=I Still Miss Someone
TTITLE4=I Walk The Line
TTITLE5=These Hands
TTITLE6=A Boy Named Sue
TTITLE7=Casey Jones
TTITLE8=City Of New Orleans
TTITLE9=Folsom Prison Blues
TTITLE10=If I Were A Carpenter
TTITLE11=Jackson
TTITLE12=Long Black Veil
TTITLE13=Orange Blossom Special
TTITLE14=Peace In The Valley
TTITLE15=Ring Of Fire
TTITLE16=Rock Island Line
TTITLE17=Sixteen Tons
TTITLE18=Sunday Mornin' Comin' Down
TTITLE19=The Highwayman
TTITLE20=The Wall
TTITLE21=Why Me Lord?
EXTD=
EXTT0=
EXTT1=
EXTT2=
EXTT3=
EXTT4=
EXTT5=
EXTT6=
EXTT7=
EXTT8=
EXTT9=
EXTT10=
EXTT11=
EXTT12=
EXTT13=
EXTT14=
EXTT15=
EXTT16=
EXTT17=
EXTT18=
EXTT19=
EXTT20=
EXTT21=
PLAYORDER=
